# xmcd
#
# Track frame offsets:
#	150
#	5808
#	22915
#	39947
#	56760
#	73845
#	92535
#	109631
#	124581
#	142088
#	158441
#	175001
#	189696
#
# Disc length: 2747 seconds
#
# Revision: 1
# Processed by: cddbd v1.5.2PL0 Copyright (c) Steve Scherf et al.
# Submitted via: audiograbber 1.83.01
#
DISCID=a50ab90d
DTITLE=Alborosie - Freedom and Fyah
DYEAR=2016
DGENRE=Reggae
TTITLE0=The Prophecy
TTITLE1=Can't Cool
TTITLE2=Fly 420 (feat. Sugus)
TTITLE3=Cry
TTITLE4=Strolling (feat. Protoje)
TTITLE5=Rocky Road
TTITLE6=Poser
TTITLE7=Judgement
TTITLE8=Life To Me (feat. Ky-Mani Marley)
TTITLE9=Rich
TTITLE10=Carry On (feat. Sandy Smith)
TTITLE11=Everything (feat.  Roots Radics and Pupa Avril)
TTITLE12=Zion Youth (feat. Sugus)
EXTD=
EXTT0=
EXTT1=
EXTT2=
EXTT3=
EXTT4=
EXTT5=
EXTT6=
EXTT7=
EXTT8=
EXTT9=
EXTT10=
EXTT11=
EXTT12=
PLAYORDER=
